<svg width="417" height="510" viewBox="0 0 417 510" fill="none" xmlns="http://www.w3.org/2000/svg">
<path d="M0 327.525V481.991C39.4935 491.895 72.1464 500.083 110.331 509.659L122.59 431.59L110.331 353.522L56.7998 330.413L0 327.525Z" fill="url(#paint0_linear_2_125)"/>
<path d="M110.331 24.5934V329.857L151.47 353.056L208.403 360.413L220.662 119.989L208.403 49.5655L159.367 24.9721L110.331 24.5934Z" fill="#5374E9"/>
<path d="M208.402 49.5655V340.413L257.438 334.829L306.474 309.857C306.474 306.041 306.474 28.4078 306.474 24.5934L257.438 24.9721L208.402 49.5655Z" fill="#6C8DFF"/>
<path fill-rule="evenodd" clip-rule="evenodd" d="M183.791 43.2987C157.125 36.5086 118.586 26.6956 110.331 24.5934L208.402 0.000162624V0H208.403L306.474 24.5934L282.258 30.7596C255.579 37.5528 216.7 47.4524 208.403 49.5654L208.403 49.5656C208.403 49.5656 208.403 49.5655 208.403 49.5655C208.403 49.5655 208.402 49.5656 208.402 49.5656V49.5654C204.78 48.6431 195.413 46.258 183.791 43.2987Z" fill="#7CAEF8"/>
<path d="M110.331 353.522V509.659C122.501 506.607 196.408 488.073 208.403 485.066L220.662 407.74L208.403 330.414C193.928 331.121 163.45 332.609 154.872 333.028C149.463 335.516 115.76 351.024 110.331 353.522V353.522Z" fill="#6BCD49"/>
<path fill-rule="evenodd" clip-rule="evenodd" d="M110.331 299.859V299.857C139.205 308.853 149.087 311.932 156.073 314.109C165.525 317.054 169.674 318.347 208.403 330.413C200.947 332.17 169.158 339.66 143.459 345.716C128.021 349.354 114.78 352.473 110.331 353.522V353.521L110.331 353.522C96.885 350.354 13.4178 330.687 0 327.525L110.331 299.857L110.331 299.859Z" fill="#C9F87C"/>
<path d="M306.474 353.522L318.733 431.59L306.474 509.658C294.61 506.683 220.344 488.059 208.402 485.065C208.402 476.477 208.402 338.999 208.402 330.413L257.438 332.207L306.474 353.522Z" fill="#F39321"/>
<path d="M416.804 327.525V481.991C377.311 491.895 344.658 500.083 306.474 509.659C306.474 500.98 306.474 362.2 306.474 353.522L361.639 330.413L416.804 327.525Z" fill="#F3A141"/>
<path fill-rule="evenodd" clip-rule="evenodd" d="M306.474 299.857L306.474 299.857C306.477 299.856 306.479 299.856 306.479 299.856C306.479 299.856 306.477 299.856 306.474 299.857L416.804 327.525C403.387 330.687 319.92 350.354 306.474 353.522C306.474 353.522 306.474 353.522 306.474 353.522L257.438 341.968L208.402 330.414C212.653 329.089 216.721 327.822 220.614 326.609C235.309 322.03 247.503 318.231 257.619 315.08C301.626 301.368 306.305 299.91 306.474 299.858V299.858C306.429 299.872 306.099 299.974 306.474 299.857V299.857L306.474 299.857Z" fill="#F8C67C"/>
<defs>
<linearGradient id="paint0_linear_2_125" x1="61.2948" y1="327.525" x2="61.2948" y2="509.659" gradientUnits="userSpaceOnUse">
<stop stop-color="#89F1FF"/>
<stop offset="1" stop-color="#6292DB"/>
</linearGradient>
</defs>
</svg>
