<svg width="42" height="50" viewBox="0 0 42 50" fill="none" xmlns="http://www.w3.org/2000/svg">
<path d="M15.1406 12.5027L21 1.14441e-05H36.9829L38.1502 12.5027H15.1406Z" fill="#F8C67C"/>
<path d="M3.84961 12.5027L5.0169 1.14441e-05H20.9998V12.5027H3.84961Z" fill="#F8C67C"/>
<path d="M21 50L15.1406 27.9297L21 5.85938H30.8576C32.6864 5.85938 34.4381 6.5376 35.79 7.76924C37.142 9.00088 37.9802 10.6819 38.1501 12.5027L41.6509 50H21Z" fill="#F39321"/>
<path d="M6.20981 7.76924C7.56177 6.5376 9.31343 5.85938 11.1422 5.85938H20.9999V50H0.348877L3.84966 12.5027C4.01968 10.6818 4.85786 9.00078 6.20981 7.76924Z" fill="#F3A141"/>
</svg>
