<svg width="52" height="52" viewBox="0 0 52 52" fill="none" xmlns="http://www.w3.org/2000/svg">
<path d="M25.7699 51.8099C39.9836 51.8099 51.5061 40.2874 51.5061 26.0737C51.5061 11.86 39.9836 0.337524 25.7699 0.337524C11.5562 0.337524 0.0336914 11.86 0.0336914 26.0737C0.0336914 40.2874 11.5562 51.8099 25.7699 51.8099Z" fill="#1977F3" fill-opacity="0.65"/>
<path d="M35.7878 33.515L36.9279 26.074H29.7908V21.2459C29.7908 19.2119 30.7861 17.225 33.9855 17.225H37.2319V10.8914C37.2319 10.8914 34.2859 10.3883 31.4701 10.3883C25.5925 10.3883 21.7489 13.9496 21.7489 20.4027V26.074H15.2126V33.515H21.7489V51.4989C23.0591 51.7052 24.4018 51.8101 25.7699 51.8101C27.1379 51.8101 28.4807 51.7016 29.7908 51.4989V33.515H35.7878Z" fill="white"/>
</svg>
