<svg width="66" height="66" viewBox="0 0 66 66" fill="none" xmlns="http://www.w3.org/2000/svg">
<path d="M25.2452 28.1872C28.0037 23.8315 33.7707 22.5352 38.1266 25.2938C42.4825 28.0524 43.7779 33.8213 41.0194 38.177C38.2609 42.5327 32.492 43.8278 28.136 41.0692C23.7801 38.3106 22.4867 32.543 25.2452 28.1872ZM20.9811 25.4868C16.7315 32.1971 18.7263 41.0814 25.4369 45.3313C32.1475 49.5811 41.0319 47.5866 45.2816 40.8763C49.5312 34.166 47.5364 25.2816 40.8258 21.0318C34.1152 16.7819 25.2308 18.7764 20.9811 25.4868ZM50.9227 26.7512C49.9289 28.3189 50.3943 30.3954 51.9621 31.3892C53.5299 32.3829 55.6064 31.9176 56.6001 30.3499C57.5939 28.7822 57.1285 26.7057 55.5607 25.7119L55.5596 25.7112C53.9916 24.7193 51.9166 25.1847 50.9227 26.7512ZM11.3747 46.3871C9.13423 44.8211 8.12368 43.6427 7.49598 42.7903C6.6636 41.6606 6.19976 40.6492 5.89512 39.2968C5.59048 37.9444 5.57617 36.8321 5.84759 35.4562C6.05021 34.4176 6.46025 32.92 7.81632 30.5467C9.28111 27.98 9.73268 27.2163 13.7343 20.8976C17.7359 14.5789 18.2339 13.8475 19.9275 11.4228C21.4935 9.18247 22.6734 8.17585 23.5242 7.54432C24.6539 6.71199 25.6653 6.24819 27.0178 5.94361C28.3702 5.63902 29.4825 5.62476 30.8603 5.89742C31.8989 6.10008 33.3966 6.51016 35.77 7.86629C38.3368 9.33115 39.1005 9.78274 45.4166 13.7827C51.7327 17.7827 52.467 18.2825 54.8918 19.9762C57.1322 21.5423 58.1389 22.7221 58.7705 23.573C59.6041 24.7008 60.0667 25.7141 60.3714 27.0665C60.676 28.4189 60.6872 29.5319 60.4177 30.909C60.2151 31.9476 59.805 33.4452 58.449 35.8185C56.9828 38.3873 56.5326 39.1489 52.531 45.4676C48.5293 51.7863 48.0333 52.5189 46.3377 54.9424C44.7717 57.1827 43.5915 58.192 42.7411 58.8209C41.6114 59.6532 40.6 60.117 39.2487 60.4197C37.8975 60.7224 36.7833 60.7355 35.4062 60.4659C34.3675 60.2632 32.8699 59.8532 30.4965 58.497C27.9297 57.0322 27.166 56.5806 20.847 52.5788C14.5281 48.577 13.7954 48.0809 11.3747 46.3871ZM38.2698 3.48547C35.6782 2.00491 33.704 1.31422 31.8304 0.947142C29.891 0.565254 28.06 0.540983 25.9104 1.02177C23.7607 1.50255 22.1165 2.31057 20.5266 3.48475C18.9891 4.61841 17.5003 6.08572 15.7904 8.53195C14.076 10.981 13.5385 11.7706 9.46918 18.1962C5.39983 24.6219 4.91572 25.4453 3.4346 28.042C1.95399 30.6338 1.26408 32.6068 0.896462 34.4813C0.515237 36.4196 0.486861 38.2531 0.971304 40.4012C1.45575 42.5493 2.26135 44.1933 3.43452 45.7849C4.57015 47.3236 6.03564 48.8113 8.48198 50.5213C10.9336 52.2346 11.7208 52.7732 18.1467 56.8427C24.5725 60.9122 25.396 61.3964 27.9928 62.8776C30.5847 64.3582 32.5577 65.0482 34.4323 65.4159C36.3718 65.7955 38.2027 65.822 40.3523 65.3413C42.5019 64.8605 44.145 64.0504 45.7361 62.8783C47.2735 61.7446 48.7643 60.2785 50.4723 57.8311C52.186 55.379 52.7222 54.5912 56.7916 48.1656C60.861 41.74 61.3451 40.9165 62.8281 38.321C64.3087 35.7293 64.9992 33.7553 65.3662 31.8817C65.7457 29.9423 65.7722 28.1114 65.2914 25.9618C64.8105 23.8122 64.0015 22.1674 62.83 20.5793C61.6944 19.0406 60.2282 17.5498 57.7826 15.8429C55.3323 14.1304 54.5438 13.591 48.1179 9.52151C41.692 5.45199 40.868 4.9675 38.2698 3.48547Z" fill="url(#paint0_radial_8_845)"/>
<defs>
<radialGradient id="paint0_radial_8_845" cx="0" cy="0" r="1" gradientUnits="userSpaceOnUse" gradientTransform="translate(0.630252 46.0628) rotate(32.3461) scale(73.1246)">
<stop offset="0.09" stop-color="#FA8F21"/>
<stop offset="0.78" stop-color="#D82D7E"/>
</radialGradient>
</defs>
</svg>
