<svg width="48" height="50" viewBox="0 0 48 50" fill="none" xmlns="http://www.w3.org/2000/svg">
<path d="M8.3283 9.32506C9.86473 10.5636 10.4414 10.4696 13.3289 10.2774L40.5459 8.65675C41.1226 8.65675 40.6427 8.0845 40.4512 7.99049L35.9284 4.74706C35.0634 4.0808 33.908 3.31643 31.696 3.5065L5.344 5.41537C4.38425 5.50938 4.19065 5.98762 4.57372 6.36775L8.3283 9.32506ZM9.96153 15.6198V44.0361C9.96153 45.5628 10.7297 46.1351 12.4618 46.039L42.3728 44.3223C44.1049 44.2282 44.2985 43.1778 44.2985 41.9372V13.711C44.2985 12.4724 43.8186 11.8041 42.7579 11.8981L11.5 13.711C10.3467 13.807 9.96153 14.3813 9.96153 15.6198ZM39.4894 17.1424C39.6809 18.0008 39.4894 18.8592 38.6244 18.9573L37.1827 19.2434V40.2204C35.9305 40.8888 34.7771 41.2709 33.8153 41.2709C32.2748 41.2709 31.8896 40.7927 30.7363 39.3641L21.3097 24.6777V38.8859L24.2919 39.5562C24.2919 39.5562 24.2919 41.273 21.8864 41.273L15.2505 41.6531C15.0589 41.273 15.2505 40.3185 15.9239 40.1285L17.654 39.6523V20.8641L15.2546 20.672C15.061 19.8136 15.5429 18.5751 16.8878 18.479L24.0056 18.0028L33.8174 32.8793V19.7175L31.315 19.4335C31.1235 18.383 31.8917 17.6206 32.8535 17.5266L39.4894 17.1424ZM3.13203 2.84024L30.5447 0.837363C33.9101 0.551238 34.7771 0.741307 36.8923 2.26799L45.6434 8.37063C47.085 9.41907 47.567 9.7052 47.567 10.8497V44.3223C47.567 46.4191 46.7988 47.6617 44.1069 47.8498L12.2703 49.7586C10.2519 49.8547 9.28805 49.5686 8.22944 48.232L1.78508 39.9343C0.631732 38.4076 0.151855 37.2652 0.151855 35.9286V6.17564C0.151855 4.46093 0.92213 3.02826 3.13203 2.84024Z" fill="black"/>
</svg>
