<svg width="27" height="28" viewBox="0 0 27 28" fill="none" xmlns="http://www.w3.org/2000/svg">
<path d="M0.0541992 13.3519C0.0541992 7.32454 0.0541992 4.31087 1.92246 2.43149C3.80183 0.563232 6.81551 0.563232 12.8429 0.563232H13.9549C19.9823 0.563232 22.9959 0.563232 24.8753 2.43149C26.7436 4.31087 26.7436 7.32454 26.7436 13.3519V14.4639C26.7436 20.4913 26.7436 23.505 24.8753 25.3843C22.9959 27.2526 19.9823 27.2526 13.9549 27.2526H12.8429C6.81551 27.2526 3.80183 27.2526 1.92246 25.3843C0.0541992 23.505 0.0541992 20.4913 0.0541992 14.4639V13.3519Z" fill="#2787F5"/>
<path fill-rule="evenodd" clip-rule="evenodd" d="M7.28252 8.90361H5.33642C4.7804 8.90361 4.66919 9.1705 4.66919 9.45964C4.66919 9.97118 5.33642 12.5289 7.73847 15.9096C9.35095 18.2115 11.6195 19.4682 13.6769 19.4682C14.9112 19.4682 15.0669 19.1901 15.0669 18.712V16.966C15.0669 16.41 15.1781 16.2988 15.5785 16.2988C15.8676 16.2988 16.3569 16.4434 17.5135 17.5554C18.8368 18.8788 19.0481 19.4682 19.7932 19.4682H21.7393C22.2953 19.4682 22.5733 19.1901 22.4065 18.6452C22.2397 18.0892 21.6058 17.3108 20.7718 16.3655C20.327 15.8206 19.6375 15.2535 19.4373 14.9643C19.1482 14.5862 19.2149 14.4194 19.4373 14.0969C19.4373 14.0969 21.806 10.7607 22.0506 9.61532C22.173 9.20386 22.0506 8.90361 21.4613 8.90361H19.5152C19.3332 8.89272 19.1525 8.94099 19.0002 9.0412C18.8479 9.14141 18.732 9.28819 18.67 9.45964C18.67 9.45964 17.6691 11.8617 16.2791 13.4297C15.8231 13.8856 15.6118 14.0302 15.3672 14.0302C15.256 14.0302 15.0669 13.8856 15.0669 13.4742V9.61532C15.0669 9.12602 14.9224 8.90361 14.5109 8.90361H11.4527C11.1414 8.90361 10.9523 9.12602 10.9523 9.34843C10.9523 9.81549 11.664 9.9267 11.7308 11.2389V14.108C11.7308 14.7419 11.6195 14.8531 11.3749 14.8531C10.7077 14.8531 9.1063 12.4288 8.14993 9.65981C7.972 9.12602 7.78295 8.90361 7.28252 8.90361Z" fill="white"/>
</svg>
