<svg width="27" height="27" viewBox="0 0 27 27" fill="none" xmlns="http://www.w3.org/2000/svg">
<path d="M20.3257 26.8922C23.9523 26.8922 26.8922 23.9523 26.8922 20.3257C26.8922 16.6992 23.9523 13.7593 20.3257 13.7593C16.6992 13.7593 13.7593 16.6992 13.7593 20.3257C13.7593 23.9523 16.6992 26.8922 20.3257 26.8922Z" fill="#EDFF81"/>
<path d="M22.2957 9.81949C24.8343 9.81949 26.8922 7.76156 26.8922 5.22298C26.8922 2.68439 24.8343 0.626465 22.2957 0.626465C19.7571 0.626465 17.6992 2.68439 17.6992 5.22298C17.6992 7.76156 19.7571 9.81949 22.2957 9.81949Z" fill="#253D32"/>
<path d="M5.26228 26.8529C7.80087 26.8529 9.8588 24.795 9.8588 22.2564C9.8588 19.7178 7.80087 17.6599 5.26228 17.6599C2.7237 17.6599 0.665771 19.7178 0.665771 22.2564C0.665771 24.795 2.7237 26.8529 5.26228 26.8529Z" fill="#253D32"/>
<path d="M7.19291 13.7594C10.8195 13.7594 13.7594 10.8195 13.7594 7.19291C13.7594 3.56636 10.8195 0.626465 7.19291 0.626465C3.56636 0.626465 0.626465 3.56636 0.626465 7.19291C0.626465 10.8195 3.56636 13.7594 7.19291 13.7594Z" fill="#EDFF81"/>
</svg>
